PathFileType	4	(X/Y/Z)	E:\Marcel_BSc\Ayumi_22_01_2025\22-01-2025\sumo_dl_2.trc
DataRate	CameraRate	NumFrames	NumMarkers	Units	OrigDataRate	OrigDataStartFrame	OrigNumFrames
200.0	200.0	7	47	mm	200.0	287	2294	
Frame#	Time	LBHD			FHD			RBHD			RBAR			LBAR			RSACR			LSACR			USACR			C7			CLAV			T10			RSHO			LSHO			LTHI1			LTHI3			LTHI2			LTIB1			LTIB2			LTIB3			LMMAL			LLMAL			LHEE			LMT1			LMT5			LMT3			RTHI1			RTHI2			RTHI3			RTIB1			RTIB3			RTIB2			RLMAL			RMMAL			RHEE			RMT5			RMT1			RMT3			LDUPA			LMUPA			LUUPA			LRAD			RUL			RRAD			RUFIN			RMUPA			RDUPA			RUUPA			
		X1	Y1	Z1	X2	Y2	Z2	X3	Y3	Z3	X4	Y4	Z4	X5	Y5	Z5	X6	Y6	Z6	X7	Y7	Z7	X8	Y8	Z8	X9	Y9	Z9	X10	Y10	Z10	X11	Y11	Z11	X12	Y12	Z12	X13	Y13	Z13	X14	Y14	Z14	X15	Y15	Z15	X16	Y16	Z16	X17	Y17	Z17	X18	Y18	Z18	X19	Y19	Z19	X20	Y20	Z20	X21	Y21	Z21	X22	Y22	Z22	X23	Y23	Z23	X24	Y24	Z24	X25	Y25	Z25	X26	Y26	Z26	X27	Y27	Z27	X28	Y28	Z28	X29	Y29	Z29	X30	Y30	Z30	X31	Y31	Z31	X32	Y32	Z32	X33	Y33	Z33	X34	Y34	Z34	X35	Y35	Z35	X36	Y36	Z36	X37	Y37	Z37	X38	Y38	Z38	X39	Y39	Z39	X40	Y40	Z40	X41	Y41	Z41	X42	Y42	Z42	X43	Y43	Z43	X44	Y44	Z44	X45	Y45	Z45	X46	Y46	Z46	X47	Y47	Z47	
287	1.425	159.44167	1512.7057	-892.73206	143.3271	1531.2462	-952.43994	184.5616	1501.9681	-1024.4683	247.61771	236.47054	-2034.7817	274.40332	250.10866	185.61942	388.73639	888.06567	-996.87976	392.14407	887.37402	-925.23761	381.54556	898.57062	-959.146	336.96127	1321.5282	-946.81219	194.82008	1258.3708	-960.98828	363.66312	1046.0524	-956.60797	273.69934	1332.051	-1091.6548	257.12094	1324.4758	-811.09668	343.26941	582.99969	-694.47437	346.3371	517.85675	-685.20581	307.46698	537.67377	-660.92926	334.77502	246.01819	-544.59784	372.73895	230.75137	-575.85431	349.25525	183.3791	-537.87817	295.1362	68.606537	-555.98071	354.17694	72.280685	-511.6077	357.3848	31.439629	-561.51593	207.52562	45.434593	-436.45499	275.6709	28.593081	-391.60715	229.00429	41.387432	-409.36584	337.74619	576.53864	-1216.959	300.94894	534.07428	-1252.6213	339.66458	512.2467	-1228.0203	331.28293	277.87686	-1355.9559	346.59509	214.31717	-1361.5238	368.17264	263.63565	-1323.8661	354.85489	73.289352	-1393.1438	280.51617	68.463882	-1367.9749	356.02664	29.43642	-1344.8295	287.50986	25.921028	-1523.8444	226.73694	35.7887	-1495.6483	250.4144	33.052448	-1515.9805	334.78683	1249.0828	-623.84741	306.62613	1289.9586	-626.31543	317.44595	1294.2786	-687.43188	258.62109	1276.8757	-295.04633	334.34048	1292.5933	-1592.981	276.22119	1314.512	-1594.7466	278.79276	1318.5485	-1667.4392	345.95667	1292.8922	-1197.75	349.62659	1285.1248	-1259.217	363.24777	1246.8766	-1191.3267
288	1.43	159.34863	1512.6724	-892.75372	143.32942	1530.8966	-952.63715	184.42357	1502.0175	-1024.4326	247.65062	236.44234	-2034.8536	274.431	250.10934	185.60715	388.71915	888.02271	-996.89172	392.06738	887.41656	-925.20422	381.52441	898.55237	-959.16644	336.94	1321.4722	-946.84216	194.75055	1258.3763	-960.98047	363.61682	1046.0571	-956.61493	273.62241	1332.0347	-1091.6653	257.05936	1324.4624	-811.12445	343.23904	583.00189	-694.46021	346.3262	517.80872	-685.18945	307.40927	537.62817	-660.91956	334.74591	246.01172	-544.58655	372.73621	230.73868	-575.84882	349.24918	183.36938	-537.86084	295.15738	68.610741	-555.95947	354.17184	72.290169	-511.60336	357.4054	31.434492	-561.5047	207.50494	45.462727	-436.45972	275.47043	27.696304	-391.63925	228.78017	41.052383	-409.17953	337.74548	576.52637	-1216.9512	300.96771	534.08942	-1252.6243	339.6749	512.24567	-1228.0385	331.30569	277.8707	-1355.9777	346.59802	214.2643	-1361.5826	368.15326	263.66873	-1323.8787	354.86548	73.269913	-1393.1624	280.51202	68.479797	-1367.9767	356.03607	29.405872	-1344.8403	287.51935	25.9468	-1523.8448	226.74709	35.792984	-1495.6649	250.43175	33.062447	-1515.983	334.724	1249.1873	-623.867	306.56659	1289.9982	-626.35156	317.36951	1294.324	-687.46362	258.56067	1277.0862	-295.11566	334.19876	1292.6758	-1592.9799	276.11362	1314.5531	-1594.7697	278.68051	1318.5875	-1667.4293	345.88867	1292.9181	-1197.7565	349.5665	1285.1266	-1259.2244	363.18753	1246.8862	-1191.3547
289	1.435	159.23613	1512.6785	-892.78156	143.20792	1530.8519	-952.70825	184.30663	1502.0116	-1024.4656	247.76582	236.35435	-2034.7717	274.42719	250.0994	185.60939	388.70273	888.00323	-996.90955	392.04083	887.41382	-925.21332	381.50601	898.55017	-959.16577	336.82291	1321.4984	-946.85608	194.6869	1258.3478	-961.0083	363.56549	1046.0555	-956.61536	273.56906	1332.0073	-1091.6919	256.95898	1324.5197	-811.14905	343.23468	583.01672	-694.43365	346.27652	517.8194	-685.15381	307.39948	537.63672	-660.89716	334.74356	246.03374	-544.58691	372.71368	230.75647	-575.79846	349.2352	183.37968	-537.84839	295.14932	68.596992	-555.95465	354.18317	72.229858	-511.63058	357.42618	31.42057	-561.50677	207.51326	45.46706	-436.47162	275.71851	28.475044	-391.67349	228.99149	41.406216	-409.37125	337.73395	576.55927	-1216.9617	300.95227	534.09082	-1252.6398	339.67169	512.2442	-1228.0725	331.24234	277.84451	-1356.0189	346.59485	214.34581	-1361.5515	368.16623	263.6741	-1323.903	354.84378	73.277901	-1393.1776	280.49921	68.505486	-1367.9835	356.0213	29.415329	-1344.8495	287.51706	25.940744	-1523.8573	226.72969	35.78611	-1495.6621	250.4294	33.070518	-1515.9858	334.67929	1249.2742	-623.89136	306.49466	1290.0663	-626.38446	317.33667	1294.3599	-687.48724	258.52914	1277.1984	-295.13528	334.14609	1292.6746	-1593.0369	275.97662	1314.6195	-1594.7834	278.5257	1318.7015	-1667.4249	345.80746	1292.939	-1197.769	349.48318	1285.1628	-1259.2445	363.12534	1246.9132	-1191.3677
290	1.44	159.13324	1512.6396	-892.8089	143.06558	1531.0143	-952.65131	184.21347	1501.9639	-1024.5396	247.7471	236.37376	-2034.7988	274.43759	250.11354	185.61749	388.65677	888.05475	-996.90057	392.01486	887.40991	-925.22638	381.48529	898.54718	-959.17261	336.74722	1321.4781	-946.86761	194.61679	1258.338	-961.01904	363.50787	1046.0605	-956.61548	273.48944	1332.0015	-1091.7166	256.91797	1324.5013	-811.18262	343.22058	582.98108	-694.44092	346.2908	517.83154	-685.14935	307.36154	537.65283	-660.90009	334.72232	246.0571	-544.57983	372.68448	230.79247	-575.81451	349.24179	183.35895	-537.85382	295.16998	68.606247	-555.97003	354.15958	72.314957	-511.61005	357.40366	31.446058	-561.5097	207.52292	45.453098	-436.46548	275.55234	27.774675	-391.715	228.73659	41.115868	-409.1507	337.7139	576.5968	-1216.981	300.94986	534.07971	-1252.6411	339.65234	512.24603	-1228.0984	331.25137	277.85428	-1356.0012	346.57175	214.29482	-1361.5979	368.17084	263.66812	-1323.9225	354.84714	73.274071	-1393.1859	280.50836	68.507629	-1368.0065	356.01404	29.409195	-1344.8594	287.5097	25.936996	-1523.8757	226.74979	35.788502	-1495.6586	250.42897	33.052414	-1516.0062	334.59888	1249.3892	-623.91125	306.41949	1290.1318	-626.42792	317.2507	1294.4706	-687.51605	258.6264	1277.0333	-295.18158	334.1774	1292.4879	-1593.3329	275.82437	1314.6975	-1594.7972	278.34756	1318.8988	-1667.34	345.71616	1292.9409	-1197.7886	349.39587	1285.1788	-1259.2614	363.05634	1246.8997	-1191.4117
291	1.445	159.02635	1512.5941	-892.85162	142.9861	1530.9308	-952.72064	184.11246	1501.9354	-1024.5713	247.79016	236.3309	-2034.7545	274.43033	250.10571	185.62064	388.62054	888.091	-996.90332	391.96106	887.45367	-925.21155	381.43945	898.60156	-959.17572	336.6825	1321.4717	-946.89935	194.55887	1258.3542	-961.01379	363.47171	1046.0737	-956.60114	273.40146	1331.9891	-1091.7343	256.79947	1324.4928	-811.23993	343.21414	583.01837	-694.4342	346.25562	517.79547	-685.1474	307.3476	537.67535	-660.87689	334.72485	246.10361	-544.52844	372.69174	230.78549	-575.77094	349.27588	183.31943	-537.82428	295.17065	68.606087	-555.96613	354.18161	72.268852	-511.63077	357.40878	31.452127	-561.50018	207.51796	45.460384	-436.46921	275.55902	27.773468	-391.72028	228.77466	41.058601	-409.18933	337.68665	576.59052	-1216.976	300.92014	534.03827	-1252.6913	339.65289	512.23254	-1228.1179	331.2095	277.82907	-1356.0387	346.5499	214.30545	-1361.6021	368.13889	263.66376	-1323.9532	354.82202	73.279434	-1393.1967	280.52725	68.476715	-1368.006	356.01917	29.411192	-1344.8795	287.49741	25.950117	-1523.8807	226.72183	35.786228	-1495.6812	250.42503	33.06131	-1516.0106	334.53311	1249.4873	-623.94055	306.3443	1290.2101	-626.46344	317.20206	1294.5347	-687.55621	258.50122	1277.4835	-295.14642	333.96771	1292.6794	-1593.1294	275.65436	1314.7836	-1594.8121	278.29468	1318.8181	-1667.4575	345.64737	1292.9366	-1197.816	349.32166	1285.1525	-1259.3053	363.00888	1246.881	-1191.4596
292	1.45	158.89828	1512.5709	-892.91962	142.91872	1530.9202	-952.77338	184.01624	1501.8978	-1024.5974	247.71327	236.3934	-2034.8231	274.44269	250.12213	185.62357	388.58481	888.11713	-996.90326	391.91071	887.4765	-925.21649	381.38327	898.62988	-959.17383	336.61115	1321.4845	-946.92407	194.45544	1258.3566	-961.03882	363.42264	1046.0687	-956.60107	273.32971	1331.9697	-1091.7634	256.71829	1324.3983	-811.32648	343.16479	583.03265	-694.44501	346.17688	517.91547	-685.13007	307.32639	537.68884	-660.88806	334.70355	246.09218	-544.50867	372.69934	230.8112	-575.76379	349.25702	183.34381	-537.84406	295.18161	68.561668	-555.98102	354.16962	72.253342	-511.63538	357.40729	31.446547	-561.50317	207.50607	45.452442	-436.47076	275.54019	27.769457	-391.72733	228.75414	41.103821	-409.18185	337.67151	576.54309	-1217.0659	300.89752	534.07574	-1252.6974	339.65607	512.23663	-1228.1401	331.20465	277.85684	-1356.0476	346.53674	214.32927	-1361.5989	368.0827	263.70187	-1323.942	354.83051	73.280602	-1393.1987	280.50687	68.494408	-1368.0289	356.01813	29.421164	-1344.8756	287.50772	25.955921	-1523.8894	226.76167	35.818623	-1495.6868	250.40395	33.049271	-1516.0277	334.47324	1249.5753	-623.95355	306.28369	1290.3439	-626.47473	317.16052	1294.6536	-687.55347	258.45532	1277.6736	-295.16266	333.8717	1292.6692	-1593.1736	275.64471	1314.7567	-1594.7865	278.13281	1318.8995	-1667.4709	345.56522	1292.931	-1197.8533	349.24139	1285.1636	-1259.3186	362.95392	1246.8445	-1191.5034
293	1.455	158.79192	1512.5112	-892.99353	142.82591	1530.8306	-952.85248	183.89886	1501.8788	-1024.6284	247.68184	236.43434	-2034.8628	274.41833	250.08029	185.61786	388.53604	888.14587	-996.90607	391.90009	887.46301	-925.23865	381.38644	898.62225	-959.17505	336.5206	1321.4917	-946.96222	194.40269	1258.3386	-961.07953	363.37656	1046.0804	-956.59357	272.95447	1332.2159	-1091.7271	256.66782	1324.5001	-811.28229	343.18448	583.04089	-694.44354	346.21948	517.87286	-685.1153	307.32205	537.70422	-660.89874	334.69458	246.01566	-544.52576	372.69147	230.80688	-575.76776	349.22583	183.33647	-537.86395	295.17389	68.572838	-555.98926	354.15662	72.293274	-511.62927	357.38831	31.458178	-561.51306	207.51357	45.451633	-436.46866	275.5498	27.743782	-391.7276	228.78801	41.078777	-409.20731	337.68088	576.56213	-1217.0692	300.85083	534.11517	-1252.7089	339.62091	512.23676	-1228.172	331.20972	277.87109	-1356.0536	346.51279	214.33142	-1361.6271	368.09024	263.67926	-1323.9689	354.82831	73.293678	-1393.2013	280.50269	68.493423	-1368.0493	356.00439	29.434002	-1344.8909	287.49142	25.977205	-1523.8993	226.75316	35.811295	-1495.6978	250.39819	33.060104	-1516.0488	334.40701	1249.6689	-623.979	306.20432	1290.4363	-626.50421	317.10965	1294.7775	-687.55634	258.43329	1277.8536	-295.173	333.755	1292.704	-1593.1854	275.50256	1314.8046	-1594.8143	278.04227	1318.9447	-1667.4923	345.48434	1292.9126	-1197.8859	349.13885	1285.1815	-1259.3523	362.88718	1246.83	-1191.5475
